<svg width="151" height="150" viewBox="0 0 151 150" fill="none" xmlns="http://www.w3.org/2000/svg">
<rect width="150" height="150" transform="translate(0.967041)" fill="#131F2E"/>
<path d="M54.1471 76.817C54.1471 78.0479 54.2811 79.0461 54.5139 79.7764C54.7785 80.5066 55.1134 81.307 55.579 82.1712C55.7448 82.4359 55.8118 82.7038 55.8118 82.9366C55.8118 83.2682 55.6109 83.6031 55.1804 83.9347L53.0852 85.3315C52.7855 85.5324 52.4857 85.6312 52.221 85.6312C51.8894 85.6312 51.5545 85.4654 51.2229 85.1657C50.7573 84.6682 50.3587 84.1356 50.027 83.6031C49.6954 83.0386 49.3605 82.4072 48.997 81.6419C46.4012 84.7033 43.1421 86.2308 39.2197 86.2308C36.4262 86.2308 34.1971 85.4335 32.5676 83.8359C30.938 82.2382 30.1057 80.1112 30.1057 77.4516C30.1057 74.6262 31.1039 72.3302 33.132 70.6018C35.1602 68.8734 37.8548 68.0092 41.2798 68.0092C42.4118 68.0092 43.5758 68.108 44.8067 68.2738C46.0377 68.4397 47.3005 68.7075 48.6303 69.0041V66.5773C48.6303 64.0485 48.0977 62.2882 47.0677 61.255C46.0026 60.225 44.2072 59.7243 41.6465 59.7243C40.4825 59.7243 39.2867 59.8582 38.0557 60.158C36.8248 60.4577 35.629 60.8245 34.465 61.2901C33.9324 61.5229 33.5338 61.6568 33.301 61.7238C33.0682 61.7907 32.9024 61.8226 32.7685 61.8226C32.3029 61.8226 32.0701 61.491 32.0701 60.7926V59.163C32.0701 58.6305 32.1371 58.2319 32.3029 57.9991C32.4687 57.7663 32.7685 57.5335 33.2341 57.3007C34.398 56.7012 35.7948 56.2037 37.4243 55.8051C39.0539 55.3714 40.7823 55.1737 42.6127 55.1737C46.5702 55.1737 49.4626 56.073 51.3249 57.8683C53.1554 59.6637 54.0865 62.3902 54.0865 66.0511V76.8266H54.1535L54.1471 76.817ZM40.6452 81.8747C41.7422 81.8747 42.8742 81.6738 44.0701 81.2752C45.2659 80.8765 46.331 80.1431 47.2303 79.1481C47.7629 78.5167 48.1615 77.8183 48.3624 77.0211C48.5633 76.2239 48.694 75.2576 48.694 74.1287V72.732C47.731 72.4992 46.6978 72.2983 45.6327 72.1675C44.5676 72.0368 43.5375 71.9666 42.5075 71.9666C40.2784 71.9666 38.6489 72.4003 37.5519 73.2964C36.4549 74.1925 35.9223 75.4585 35.9223 77.12C35.9223 78.6825 36.321 79.8465 37.1533 80.6437C37.9505 81.4761 39.1145 81.8747 40.6452 81.8747ZM67.3493 85.4654C66.7498 85.4654 66.3512 85.3666 66.0865 85.1338C65.8218 84.9329 65.5891 84.4673 65.3882 83.8359L57.5721 58.1266C57.3712 57.4601 57.2723 57.0296 57.2723 56.7968C57.2723 56.2643 57.537 55.9645 58.0695 55.9645H61.3286C61.96 55.9645 62.3937 56.0634 62.6265 56.2962C62.8912 56.4971 63.0921 56.9627 63.293 57.5941L68.88 79.6105L74.0685 57.5941C74.2343 56.9276 74.4352 56.4971 74.6999 56.2962C74.9645 56.0953 75.4301 55.9645 76.0296 55.9645H78.6892C79.3206 55.9645 79.7543 56.0634 80.019 56.2962C80.2837 56.4971 80.5165 56.9627 80.6504 57.5941L85.9058 79.8784L91.6586 57.5941C91.8596 56.9276 92.0923 56.4971 92.3251 56.2962C92.5898 56.0953 93.0235 55.9645 93.623 55.9645H96.7163C97.2489 55.9645 97.5486 56.2292 97.5486 56.7968C97.5486 56.9627 97.5167 57.1285 97.4817 57.3294C97.4466 57.5303 97.3828 57.795 97.2489 58.1617L89.2319 83.871C89.031 84.5374 88.7982 84.9679 88.5335 85.1688C88.2688 85.3698 87.8351 85.5005 87.2707 85.5005H84.4102C83.7788 85.5005 83.3451 85.4016 83.0804 85.1688C82.8157 84.9361 82.5829 84.5024 82.449 83.8391L77.2925 62.3871L72.171 83.804C72.0052 84.4705 71.8043 84.901 71.5396 85.1338C71.2749 85.3666 70.8094 85.4654 70.2098 85.4654H67.3493ZM110.088 86.3647C108.359 86.3647 106.628 86.1638 104.966 85.7652C103.305 85.3666 102.007 84.9329 101.143 84.4354C100.61 84.1356 100.243 83.804 100.113 83.5042C99.9818 83.2045 99.9116 82.8728 99.9116 82.5731V80.8765C99.9116 80.1782 100.176 79.8465 100.677 79.8465C100.878 79.8465 101.076 79.8784 101.276 79.9454C101.477 80.0123 101.774 80.1463 102.109 80.277C103.241 80.7745 104.472 81.1763 105.767 81.441C107.096 81.7057 108.394 81.8396 109.724 81.8396C111.819 81.8396 113.449 81.4729 114.581 80.7426C115.713 80.0123 116.309 78.9472 116.309 77.5824C116.309 76.6512 116.009 75.8858 115.41 75.2544C114.81 74.623 113.681 74.0586 112.052 73.526L107.23 72.0304C104.803 71.2651 103.005 70.1362 101.908 68.6374C100.811 67.1737 100.246 65.5441 100.246 63.8157C100.246 62.4189 100.546 61.188 101.146 60.1229C101.745 59.0578 102.543 58.1266 103.541 57.3964C104.539 56.631 105.668 56.0666 107.001 55.668C108.334 55.2693 109.727 55.1035 111.191 55.1035C111.921 55.1035 112.687 55.1354 113.42 55.2375C114.185 55.3363 114.884 55.4702 115.582 55.6042C116.249 55.77 116.88 55.9358 117.476 56.1367C118.073 56.3376 118.541 56.5354 118.873 56.7363C119.339 57.0009 119.67 57.2688 119.871 57.5686C120.072 57.8332 120.171 58.2 120.171 58.6656V60.2281C120.171 60.9265 119.906 61.2932 119.406 61.2932C119.141 61.2932 118.707 61.1593 118.143 60.8946C116.249 60.0304 114.118 59.5967 111.759 59.5967C109.864 59.5967 108.366 59.8965 107.335 60.5279C106.305 61.1593 105.773 62.1256 105.773 63.4872C105.773 64.4184 106.105 65.2156 106.771 65.8502C107.438 66.4848 108.665 67.1131 110.429 67.6807L115.152 69.1763C117.546 69.9417 119.275 71.0068 120.308 72.3684C121.341 73.7301 121.839 75.2959 121.839 77.0243C121.839 78.4529 121.539 79.7508 120.975 80.8829C120.375 82.015 119.578 83.0099 118.548 83.8104C117.518 84.6427 116.287 85.239 114.855 85.6727C113.359 86.1383 111.797 86.3711 110.1 86.3711L110.088 86.3647Z" fill="white"/>
<path d="M116.373 102.524C105.431 110.605 89.5345 114.897 75.8635 114.897C56.7075 114.897 39.4458 107.815 26.4094 96.041C25.3794 95.1098 26.3105 93.847 27.5415 94.5773C41.643 102.76 59.0386 107.716 77.0307 107.716C89.1709 107.716 102.507 105.187 114.778 99.9985C116.609 99.1662 118.171 101.194 116.376 102.527L116.373 102.524Z" fill="#FF9900"/>
<path d="M120.93 97.3361C119.533 95.5407 111.685 96.4719 108.126 96.9024C107.061 97.0363 106.895 96.1051 107.861 95.4068C114.115 91.0156 124.39 92.2816 125.589 93.7453C126.784 95.2409 125.257 105.519 119.402 110.443C118.503 111.208 117.639 110.809 118.037 109.811C119.367 106.52 122.326 99.1027 120.93 97.3393V97.3361Z" fill="#FF9900"/>
</svg>
