<svg width="150" height="150" viewBox="0 0 150 150" fill="none" xmlns="http://www.w3.org/2000/svg">
<rect width="150" height="150" fill="#632BA6"/>
<path d="M32.4941 117.012H35.4596C38.2507 117.012 39.6479 115.4 39.6479 112.172C39.6479 109.425 38.2518 108.05 35.4596 108.05H32.4941V117.012ZM35.8353 119.139H30V105.932H35.8353C40.0394 105.932 42.1431 108.013 42.1431 112.174C42.1431 116.817 40.0394 119.139 35.8353 119.139Z" fill="white"/>
<path d="M44.756 119.139H42.1956L47.9094 105.932H50.5914L56.43 119.139H53.7469L52.0527 115.536H47.7418L48.5967 113.413H51.3935L49.1907 108.452L44.756 119.139Z" fill="white"/>
<path d="M55.0203 105.932H65.2352V108.055H61.3765V119.139H58.8824V108.055H55.0203V105.932Z" fill="white"/>
<path d="M66.5174 119.139H63.9558L69.6696 105.932H72.3527L78.1903 119.139H75.505L73.8118 115.536H69.4998L70.3559 113.413H73.1515L70.9499 108.452L66.5174 119.139Z" fill="white"/>
<path d="M82.3397 117.012H85.3051C88.0985 117.012 89.4957 115.4 89.4957 112.172C89.4957 109.425 88.0985 108.05 85.3051 108.05H82.3397V117.012ZM85.682 119.139H79.8467V105.932H85.682C89.8895 105.932 91.9898 108.013 91.9898 112.174C91.9898 116.817 89.8883 119.139 85.682 119.139Z" fill="white"/>
<path d="M100.441 117.106C103.151 117.106 104.506 115.57 104.506 112.497C104.506 109.472 103.151 107.96 100.441 107.96C97.6601 107.96 96.2697 109.472 96.2697 112.497C96.2697 115.57 97.6601 117.106 100.441 117.106ZM93.6799 112.555C93.6799 108.077 95.9344 105.839 100.441 105.839C104.879 105.839 107.095 108.077 107.095 112.555C107.095 117.007 104.879 119.234 100.441 119.234C96.1335 119.234 93.8813 117.007 93.6799 112.555Z" fill="white"/>
<path d="M117.504 113.796V116.889C116.929 117.037 116.413 117.109 115.96 117.109C112.91 117.109 111.386 115.522 111.386 112.353C111.386 109.425 113.002 107.963 116.233 107.963C117.583 107.963 118.838 108.21 119.999 108.703V106.484C118.838 106.053 117.52 105.839 116.046 105.839C111.214 105.839 108.796 108.009 108.796 112.353C108.796 116.939 111.171 119.235 115.922 119.235C117.557 119.235 118.915 119.001 120 118.532V111.624H115.97L115.128 113.796H117.504Z" fill="white"/>
<path d="M69.2747 49.0957C71.7283 47.4513 74.8895 48.0982 74.3596 48.5925C73.3505 49.5369 74.6938 49.2572 74.8389 51C74.9458 52.2828 74.5183 52.9905 74.1526 53.3931C73.3877 53.4915 72.4562 53.6762 71.3357 54.0334C70.6731 54.2446 70.0948 54.4801 69.5908 54.7168C69.4581 54.6305 69.3129 54.5277 69.1408 54.3817C67.4083 52.9087 67.4657 50.3077 69.2747 49.0957ZM83.9299 59.2552C84.3743 58.9168 86.3982 58.2776 88.2713 58.0587C89.2545 57.9437 90.6562 57.8795 90.9555 58.0443C91.5495 58.3672 91.5495 59.3636 91.1434 60.2848C90.5516 61.624 89.7135 63.1014 88.7663 63.223C87.2205 63.4232 85.7569 62.6015 84.0863 61.3751C83.4901 60.935 83.1244 59.8679 83.9299 59.2552ZM86.7503 46.2249C89.034 47.2699 88.7348 49.2572 88.7978 50.4238C88.8158 50.7589 88.809 50.9845 88.7798 51.1415C88.4625 50.9723 87.9641 50.8496 87.1722 50.8839C86.9404 50.8938 86.7143 50.9204 86.4972 50.9547C85.6545 50.5112 85.1517 49.642 84.6904 48.7186C84.6488 48.6335 84.6162 48.5583 84.5858 48.4831C84.5734 48.4499 84.5577 48.4123 84.5453 48.3824C84.5397 48.3658 84.5352 48.3515 84.5295 48.336C84.2764 47.5475 84.4463 47.3894 84.5532 47.1461C84.6634 46.8984 85.0752 46.6927 84.4665 46.4859C84.4148 46.4671 84.3484 46.4549 84.2753 46.4428C84.678 45.9518 85.8874 45.8312 86.7503 46.2249ZM74.3023 69.9842C71.8419 68.4305 69.2961 66.2044 68.1835 64.9725C67.9967 64.8343 68.0271 64.2205 68.0271 64.2205C69.0317 64.9891 73.1998 67.9152 77.6052 69.2511C79.1588 69.7233 81.545 69.9013 83.6138 68.7479C85.1955 67.8665 87.0979 66.3305 88.2341 64.748L88.4423 65.103C88.4344 65.3385 87.9113 66.4842 87.6469 66.9453C88.1273 67.2174 88.4861 67.2904 89.0205 67.4352L92.67 66.8757C93.9795 64.7967 94.9177 61.4426 93.9176 58.25C93.3461 56.4187 90.3682 52.7727 90.1545 52.5725C89.4053 51.8659 90.2805 49.1344 88.7966 46.1563C87.2284 43.0058 83.1447 39.7203 81.3717 38.2904C81.8948 38.6664 85.1134 39.9403 86.613 41.7208C86.7537 41.5361 86.8122 40.5806 86.9415 40.3395C85.6545 38.6819 85.5533 35.7292 85.5533 34.9407C85.5533 33.4943 84.804 31.8543 84.804 31.8543C84.804 31.8543 86.0933 32.8573 86.4263 34.5836C86.82 36.6305 87.6593 38.2406 88.7685 39.603C90.8677 42.1742 92.7633 43.4934 93.723 42.5424C94.8693 41.4012 92.5608 36.2954 89.6089 33.4456C86.1653 30.1236 85.263 30.5516 83.2437 31.2616C81.6316 31.8255 80.7597 36.3264 76.5579 36.2379C75.8458 36.1572 74.012 36.1118 73.1064 36.1196C73.5789 35.4716 73.9828 34.9695 73.9828 34.9695C73.9828 34.9695 72.5732 35.5257 71.3728 36.2335L71.2805 36.0964C71.6855 35.2559 72.122 34.7262 72.122 34.7262C72.122 34.7262 70.9959 35.3908 69.9677 36.187C70.1556 35.1851 70.8621 34.5504 70.8621 34.5504C70.8621 34.5504 69.4389 34.8036 67.6255 36.7621C65.5656 37.315 65.0695 37.68 63.4281 38.3943C60.7596 37.8226 59.4985 36.8981 58.3004 35.1984C57.3858 33.9001 55.7613 33.7022 54.0975 34.3734C51.6765 35.3599 48.6109 36.7079 48.6109 36.7079C48.6109 36.7079 49.6076 36.6703 50.6494 36.7156C49.2251 37.2465 47.8538 37.9763 47.8538 37.9763C47.8538 37.9763 48.522 37.9542 49.3455 37.9675C48.7763 38.4319 48.4624 38.6542 47.9213 39.0059C46.6174 39.9359 45.561 41.0097 45.561 41.0097C45.561 41.0097 46.4464 40.6138 47.2395 40.3915C46.6849 41.6433 45.5835 42.5634 45.786 44.0961C45.9795 45.4961 47.7278 48.3769 49.9834 50.1452C50.1769 50.3 53.2593 53.1 55.5813 51.9499C57.9044 50.8009 58.819 49.778 59.2015 48.2066C59.6504 46.4029 59.3939 45.0416 58.4365 41.128C58.1215 39.8364 57.2969 37.1768 56.8998 35.9051L56.9887 35.842C57.7492 37.4179 59.6932 41.5715 60.4761 44.3604C61.699 48.7109 61.3165 50.9182 60.7574 51.7265C59.071 54.1672 54.7466 54.489 52.779 53.1365C52.4786 57.8209 53.5428 59.8822 53.9028 60.9217C53.7228 62.1161 54.5115 64.3333 54.5115 64.3333C54.5115 64.3333 54.6003 63.3248 54.9603 62.794C55.0571 63.9794 55.6646 65.3872 55.6646 65.3872C55.6646 65.3872 55.6274 64.518 55.9042 63.7671C56.2934 64.4151 56.5792 64.5689 56.9482 65.0565C57.3161 66.3238 58.0552 67.2483 58.0552 67.2483C58.0552 67.2483 57.9348 66.5693 58.0012 65.8616C59.8045 67.5646 60.115 70.0495 60.295 71.9571C60.8001 77.2077 51.8745 81.3801 50.1454 84.6634C48.8336 86.6075 48.0495 89.6851 50.2691 91.4987C55.6364 95.879 53.5755 97.0855 56.2619 99.0108C59.9463 101.652 64.5587 100.468 66.1292 98.3207C68.3151 95.3272 67.7526 92.5039 66.9403 89.8642C66.307 87.7985 64.5824 84.3681 62.4483 83.0411C60.2691 81.6842 58.1497 81.4287 56.3542 81.6123L56.5207 81.4254C59.1037 80.9212 61.8025 81.1987 63.7566 82.4351C65.974 83.8362 68.0023 86.2403 69.0643 89.9239C70.2669 89.7558 70.4379 89.6784 71.5382 89.5258L69.0587 70.5493L74.3023 69.9842ZM75.7344 93.7712L75.4475 91.1404L81.0241 82.779L87.3544 84.5981L92.7993 75.6595L99.3265 79.8905L104.284 69.6691L106.047 88.2839L75.7344 93.7712ZM106.116 65.8528L86.1878 69.4037C85.695 70.0307 84.4733 71.1277 83.8872 71.4141C81.3706 72.6593 79.6685 72.2999 78.2004 71.9239C77.2554 71.6884 76.7075 71.5557 75.9223 71.2084L71.0578 71.8653L74.0098 96.0791L108.146 90.0301L106.116 65.8528Z" fill="white"/>
</svg>
