<svg width="151" height="150" viewBox="0 0 151 150" fill="none" xmlns="http://www.w3.org/2000/svg">
<rect width="150" height="150" transform="translate(0.859863)" fill="black"/>
<path fill-rule="evenodd" clip-rule="evenodd" d="M75.9012 25.8438C48.2297 25.8438 25.8599 48.3736 25.8599 76.2461C25.8599 98.5261 40.193 117.386 60.0768 124.061C62.5627 124.562 63.4734 122.976 63.4734 121.642C63.4734 120.473 63.3914 116.468 63.3914 112.295C49.4711 115.3 46.5723 106.287 46.5723 106.287C44.3352 100.445 41.0206 98.9439 41.0206 98.9439C36.4645 95.8563 41.3525 95.8563 41.3525 95.8563C46.4064 96.1902 49.0583 101.03 49.0583 101.03C53.5315 108.707 60.7395 106.538 63.6393 105.202C64.0531 101.948 65.3796 99.6946 66.788 98.4432C55.6856 97.2747 44.0044 92.9356 44.0044 73.5753C44.0044 68.0678 45.9915 63.5618 49.1403 60.0574C48.6435 58.806 46.9032 53.6313 49.6381 46.7054C49.6381 46.7054 53.8633 45.37 63.3904 51.8791C67.4692 50.7758 71.6757 50.2145 75.9012 50.2098C80.1265 50.2098 84.4337 50.7945 88.4111 51.8791C97.9391 45.37 102.164 46.7054 102.164 46.7054C104.899 53.6313 103.158 58.806 102.661 60.0574C105.893 63.5618 107.798 68.0678 107.798 73.5753C107.798 92.9356 96.1169 97.1907 84.9315 98.4432C86.7548 100.028 88.3281 103.032 88.3281 107.789C88.3281 114.548 88.2462 119.972 88.2462 121.641C88.2462 122.976 89.1578 124.562 91.6427 124.062C111.527 117.385 125.86 98.5261 125.86 76.2461C125.942 48.3736 103.49 25.8438 75.9012 25.8438Z" fill="white"/>
</svg>
