<svg width="150" height="150" viewBox="0 0 150 150" fill="none" xmlns="http://www.w3.org/2000/svg">
<path d="M120.781 69.2708C120.572 67.6037 120.365 65.6248 119.843 63.541C119.323 61.4582 118.386 59.0626 117.239 56.667C115.989 54.2713 114.531 51.6668 112.448 49.2702C111.615 48.3337 110.781 47.3962 109.844 46.4588C111.302 40.833 108.177 36.0417 108.177 36.0417C102.761 35.7289 99.4275 37.7088 98.1762 38.6452L97.5516 38.3324C96.6141 38.0206 95.6767 37.6038 94.7392 37.292C93.7814 36.9662 92.8081 36.6881 91.8229 36.4585C90.8854 36.1456 89.7391 36.0417 88.6976 35.8328C88.4898 35.8328 88.3848 35.7289 88.1769 35.7289C85.7813 28.2292 79.1151 25 79.1151 25C71.4055 30.0002 69.8434 36.6663 69.8434 36.6663C69.8434 36.6663 69.8434 36.8752 69.7395 36.9792C69.3227 37.0831 68.9059 37.292 68.4892 37.292C67.9685 37.4999 67.3438 37.6048 66.8231 37.9166C66.3024 38.2295 65.6768 38.3334 65.1561 38.6462C64.0246 39.1597 62.9128 39.7154 61.823 40.3123C60.7816 40.9379 59.7392 41.5626 58.6978 42.2911C58.5839 42.2375 58.4785 42.1675 58.3849 42.0833C47.9689 38.1255 38.8021 42.9168 38.8021 42.9168C37.9686 53.9585 42.9687 60.9375 43.9062 62.1878C43.5934 62.9164 43.4894 63.542 43.1766 64.2706C42.3441 66.7712 41.8234 69.3747 41.5105 71.9792C41.4066 72.292 41.4066 72.8127 41.3017 73.1246C31.8231 77.8129 28.9067 87.5004 28.9067 87.5004C36.9272 96.7711 46.3018 97.2918 46.3018 97.2918C47.4482 99.3746 48.9053 101.458 50.3645 103.333C50.9902 104.167 51.7187 104.792 52.4483 105.624C49.532 113.958 52.8651 120.937 52.8651 120.937C61.823 121.25 67.6567 117.083 68.9059 116.041C69.8444 116.354 70.6769 116.562 71.6144 116.875C74.3379 117.596 77.1324 118.015 79.9476 118.125H83.4896C87.6562 124.166 95.156 125 95.156 125C100.365 119.375 100.781 113.958 100.781 112.709V112.083C101.823 111.25 102.865 110.52 104.01 109.583C106.094 107.708 107.865 105.52 109.531 103.229C109.74 103.021 109.844 102.813 109.948 102.604C115.885 102.917 120.052 98.8539 120.052 98.8539C119.114 92.6035 115.573 89.5832 114.844 89.0625L114.74 88.9585L114.635 88.8536L114.531 88.7497C114.531 88.4368 114.635 88.0211 114.635 87.6043C114.74 86.8747 114.74 86.2501 114.74 85.5205V82.917C114.74 82.7081 114.74 82.6042 114.635 82.3953L114.531 81.8746L114.427 81.3539C114.323 80.6253 114.114 79.9996 114.114 79.2711C113.499 76.6303 112.481 74.1003 111.094 71.7703C109.681 69.5294 107.963 67.496 105.99 65.7288C104.01 64.0627 101.927 62.6036 99.6354 61.6661C97.4218 60.6594 95.069 59.9926 92.6564 59.6882C91.51 59.4793 90.2608 59.4793 89.1144 59.4793H87.3434C86.7178 59.5833 86.0931 59.6872 85.5724 59.7922C83.1768 60.2079 80.989 61.1454 79.0102 62.2917C77.0313 63.4371 75.3643 65.0002 73.9061 66.6662C72.5013 68.2547 71.4061 70.0919 70.6769 72.0832C69.9643 73.9159 69.5424 75.8488 69.4266 77.8119V79.8957C69.4266 80.2085 69.4266 80.3125 69.5316 80.6253C69.6355 81.5628 69.8444 82.5002 70.0523 83.3338C70.573 85.1037 71.4065 86.6669 72.4479 88.125C73.4893 89.5832 74.6357 90.6246 75.9899 91.4581C77.3441 92.3966 78.6984 92.9163 80.0526 93.437C81.4058 93.9577 82.76 94.0626 84.0103 93.9577H85.9892C86.1981 93.9577 86.302 93.8538 86.406 93.8538C86.6148 93.8538 86.7188 93.7498 86.8227 93.7498L87.7612 93.437L89.3223 92.8123C89.844 92.4995 90.2608 92.2916 90.6765 91.9788C90.7815 91.8749 90.9893 91.7709 90.9893 91.666C91.4061 91.3532 91.51 90.7295 91.1982 90.2078C90.8854 89.895 90.2598 89.7911 89.844 89.895C89.844 90.6246 89.7401 90.6246 89.5312 90.7285C89.2184 90.9374 88.6977 91.0413 88.3848 91.1453C87.9691 91.2502 87.4484 91.4581 87.0316 91.4581C86.7188 91.4581 86.6148 91.562 86.302 91.562H84.9478H84.531C84.4271 91.562 84.2182 91.5621 84.2182 91.4581C83.2807 91.2502 82.1354 91.0414 81.1979 90.5207C80.2595 90.1039 79.2191 89.4792 78.4895 88.6457C77.552 87.8122 76.9274 86.9787 76.3017 85.9373C75.6771 84.8959 75.3642 83.7495 75.1564 82.6042C75.0524 81.9785 74.9475 81.3539 75.0524 80.7292V80.2085V79.7918C75.0524 79.4789 75.1564 79.1661 75.2603 78.8533C75.6771 76.1458 77.0313 73.6463 79.1151 71.6664C79.6228 71.1593 80.1811 70.7056 80.7812 70.3122C81.4068 69.8954 82.0315 69.4786 82.6561 69.2708C83.2817 68.9579 84.0103 68.7501 84.7399 68.5412C85.4168 68.343 86.1175 68.2377 86.8227 68.2284C87.1355 68.2284 87.5523 68.1244 87.8641 68.1244H88.6976H88.4898H88.8026C89.6351 68.2294 90.3647 68.3333 91.0933 68.4372C92.5525 68.7501 94.1146 69.3757 95.5737 70.1043C98.3851 71.6664 100.781 74.062 102.239 76.9794C102.969 78.4375 103.49 79.9996 103.698 81.6667C103.802 82.0835 103.802 82.5002 103.906 82.916V85.4166C103.906 85.8333 103.802 86.354 103.802 86.7708C103.698 87.1876 103.698 87.7083 103.593 88.125C103.489 88.5418 103.385 89.0625 103.28 89.4792C103.072 90.4167 102.761 91.1453 102.448 92.0827C101.822 93.7498 100.99 95.4169 99.8443 96.7711C97.7605 99.6874 94.7392 102.083 91.51 103.646C89.844 104.375 88.1769 104.999 86.406 105.208C85.4685 105.416 84.635 105.521 83.6975 105.521H82.2393H82.1354C81.7186 105.521 81.1979 105.521 80.6772 105.416C78.6973 105.208 76.8224 104.895 74.9475 104.375C73.0726 103.854 71.3016 103.124 69.6355 102.292C66.3024 100.521 63.2811 97.9164 60.8855 95.0001C59.7392 93.5419 58.6978 91.8749 57.7603 90.2078C56.8228 88.5418 56.3021 86.7708 55.6775 85.0008C55.1545 83.2021 54.8396 81.3494 54.739 79.4789V76.3537C54.739 75.4163 54.8439 74.4788 55.0518 73.5413C55.1558 72.6039 55.3647 71.6664 55.4686 70.7289C55.5725 69.7915 55.8854 68.854 56.1982 67.9165C56.7189 66.0416 57.3435 64.2706 58.177 62.6046C59.7392 59.2705 61.823 56.2502 64.2186 53.8546C64.8443 53.2289 65.4689 52.7082 66.1975 52.1875C66.5103 51.8747 67.1359 51.354 67.7606 50.9372C68.4892 50.5204 69.2188 49.9997 69.9473 49.6879C70.2602 49.479 70.6769 49.3751 71.0937 49.1662C71.3016 49.0623 71.4065 48.9583 71.7193 48.8534C71.9272 48.7505 72.0322 48.6455 72.344 48.5416C73.1765 48.2288 73.9061 47.9159 74.7396 47.6041C74.9475 47.5002 75.1564 47.5002 75.3653 47.3962C75.5731 47.2913 75.781 47.2913 75.9899 47.1874L77.2392 46.8745C77.4481 46.7706 77.6559 46.7706 77.8648 46.6666C78.0727 46.6666 78.2816 46.5627 78.4905 46.5627C78.6973 46.5627 78.9062 46.4588 79.1141 46.4588L79.4269 46.3538L79.7398 46.2499C79.9476 46.2499 80.1565 46.1459 80.3654 46.1459C80.6772 46.1459 80.7812 46.042 81.094 46.042C81.3019 46.042 81.6147 45.9371 81.8226 45.9371C82.0315 45.9371 82.1354 45.9371 82.2393 45.8331H83.2807C83.5936 45.8331 83.6975 45.8331 84.0103 45.7292H84.3231H87.6562C89.2183 45.8331 90.8854 46.042 92.3436 46.2499C95.3649 46.7706 98.2812 47.7081 100.886 49.0623C103.489 50.3126 105.885 51.8747 107.761 53.5417C107.865 53.6457 108.074 53.7496 108.074 53.8546C108.177 53.9585 108.385 54.0624 108.385 54.1674C108.698 54.3753 108.802 54.5831 109.114 54.792C109.427 54.9999 109.531 55.2088 109.844 55.4167C110.051 55.7295 110.26 55.8334 110.469 56.1462C111.406 57.0837 112.135 58.0212 112.865 58.8537C114.323 60.7286 115.468 62.6046 116.302 64.3745C116.406 64.4795 116.406 64.5834 116.51 64.6874C116.615 64.7913 116.615 64.8963 116.719 65.0002L117.032 65.6258L117.344 66.2495L117.656 66.8751C117.969 67.7087 118.282 68.4372 118.594 69.2708C119.01 70.5211 119.323 71.5625 119.531 72.4999C119.635 72.8127 119.948 73.1256 120.365 73.1256C120.781 73.1256 121.093 72.8127 121.093 72.292C120.885 71.7703 120.886 70.625 120.781 69.2708Z" fill="url(#paint0_linear_25_15)"/>
<defs>
<linearGradient id="paint0_linear_25_15" x1="74.9478" y1="147.523" x2="74.9478" y2="56.2793" gradientUnits="userSpaceOnUse">
<stop stop-color="#FCEE1F"/>
<stop offset="1" stop-color="#F15B2A"/>
</linearGradient>
</defs>
</svg>
