<svg width="160" height="160" viewBox="0 0 160 160" fill="none" xmlns="http://www.w3.org/2000/svg">
<g clip-path="url(#clip0_1_21)">
<path d="M113 90.37H106.45C105.459 90.3361 104.473 90.5311 103.57 90.94C102.761 91.2039 102.015 91.633 101.38 92.2V81.79H98.73V114H101.5V99.17C101.52 97.5028 102.179 95.9067 103.34 94.71C104.508 93.5558 106.078 92.8998 107.72 92.88H111.64C112.452 92.8817 113.255 93.0444 114.003 93.3585C114.752 93.6726 115.43 94.1319 116 94.71C116.585 95.2961 117.048 95.9916 117.364 96.7569C117.68 97.5222 117.841 98.3422 117.84 99.17V113.92H120.61V97.92C120.621 96.9132 120.422 95.9153 120.024 94.9904C119.626 94.0655 119.039 93.2342 118.3 92.55C117.628 91.8233 116.806 91.2518 115.89 90.8754C114.975 90.4989 113.989 90.3264 113 90.37Z" fill="#25303E"/>
<path d="M81.31 98.49L90.59 114.74L81.31 131H62.86L53.59 114.74L62.86 98.49H81.31Z" fill="#FFB000"/>
<path d="M81.31 59.26L90.59 75.51L81.31 91.77H62.86L53.59 75.51L62.86 59.26H81.31Z" fill="#64BA00"/>
<path d="M48.73 81.73L56.21 95.21L48.57 108.63L33.48 108.54L26 95L33.64 81.64L48.73 81.73Z" fill="#F96E10"/>
<path d="M121.47 29L133.47 50.28L121.47 71.59H97.35L85.35 50.28L97.35 29H121.47Z" fill="#0298EC"/>
</g>
<defs>
<clipPath id="clip0_1_21">
<rect width="108" height="102" fill="white" transform="translate(26 29)"/>
</clipPath>
</defs>
</svg>
