<svg width="150" height="150" viewBox="0 0 150 150" fill="none" xmlns="http://www.w3.org/2000/svg">
<rect width="150" height="150" fill="#584674"/>
<path d="M82.1605 40.8481C81.4119 39.6565 80.355 38.6707 79.0921 37.9863C77.8293 37.302 76.4034 36.9424 74.953 36.9424C73.5026 36.9424 72.0767 37.302 70.8139 37.9863C69.5511 38.6707 68.4941 39.6565 67.7455 40.8481L55.8892 60.3265C64.9469 64.6641 72.6642 71.1988 78.2748 79.2819C83.8854 87.3649 87.1942 96.715 87.8725 106.404H79.5478C78.8707 98.0987 75.9445 90.1071 71.0586 83.2199C66.1727 76.3326 59.4965 70.7885 51.6908 67.1361L40.7174 85.3355C45.1055 87.2232 48.9285 90.1388 51.8346 93.8143C54.7408 97.4898 56.6369 101.807 57.3487 106.369H38.2308C38.004 106.354 37.7849 106.285 37.593 106.168C37.4012 106.051 37.2427 105.89 37.1318 105.7C37.021 105.509 36.9613 105.295 36.9581 105.077C36.9549 104.859 37.0084 104.644 37.1136 104.451L42.4111 95.8092C40.6163 94.3729 38.5651 93.2603 36.3568 92.5254L31.1134 101.167C30.5675 102.065 30.2131 103.058 30.0708 104.089C29.9285 105.119 30.0011 106.167 30.2845 107.17C30.5678 108.174 31.0562 109.113 31.7212 109.934C32.3863 110.755 33.2148 111.441 34.1585 111.952C35.402 112.624 36.8035 112.981 38.2308 112.989H64.412C64.8983 107.234 63.8268 101.455 61.3013 96.214C58.7759 90.9726 54.8821 86.4456 49.997 83.0714L54.1594 76.158C60.3244 80.2195 65.2787 85.7527 68.5334 92.2116C71.7881 98.6706 73.2306 105.832 72.7187 112.989H94.8998C95.4163 102.147 92.9573 91.3649 87.7685 81.7202C82.5797 72.0755 74.8428 63.9059 65.331 58.0278L73.7457 44.2011C73.9333 43.8998 74.2373 43.6817 74.5916 43.5943C74.9459 43.5069 75.3219 43.5573 75.6377 43.7345C76.5927 44.2357 112.198 103.829 112.864 104.52C112.982 104.722 113.042 104.95 113.038 105.181C113.034 105.413 112.966 105.639 112.842 105.837C112.718 106.035 112.541 106.198 112.33 106.31C112.118 106.422 111.88 106.478 111.639 106.473H103.062C103.17 108.674 103.17 110.869 103.062 113.058H111.675C112.769 113.065 113.853 112.864 114.865 112.466C115.877 112.068 116.797 111.482 117.571 110.741C118.345 110 118.959 109.119 119.376 108.149C119.793 107.179 120.005 106.139 120 105.09C120.001 103.705 119.615 102.344 118.883 101.15L82.1605 40.8481Z" fill="white"/>
</svg>
